<svg width="54.000000" height="54.000000" viewBox="0 0 54 54" fill="none" xmlns="http://www.w3.org/2000/svg" xmlns:xlink="http://www.w3.org/1999/xlink">
	<desc>
			Created with Pixso.
	</desc>
	<defs/>
	<path id="Rectangle" d="M0 27C0 12.0884 12.0879 0 27 0C41.9121 0 54 12.0884 54 27C54 41.9116 41.9121 54 27 54C12.0879 54 0 41.9116 0 27Z" fill="#FF6E40" fill-opacity="1.000000" fill-rule="nonzero"/>
	<rect id="Разное для шапок/Иконки контактов/ 2. email" width="22.000000" height="22.000000" transform="translate(16.000000 16.000000)" fill="#FFFFFF" fill-opacity="0"/>
	<path id="Vector" d="M36.7061 32.0146C36.7061 32.4399 36.5859 32.8345 36.3945 33.1816L30.2656 26.3242L36.3281 21.02C36.5635 21.394 36.7061 21.834 36.7061 22.3091L36.7061 32.0146ZM27 27.5693L35.4355 20.188C35.0898 19.9985 34.7002 19.8823 34.2793 19.8823L19.7207 19.8823C19.2998 19.8823 18.9092 19.9985 18.5645 20.188L27 27.5693ZM29.3516 27.1226L27.3994 28.8325C27.2852 28.9321 27.1426 28.9814 27 28.9814C26.8574 28.9814 26.7148 28.9321 26.6006 28.8325L24.6475 27.1226L18.4404 34.0679C18.8125 34.3013 19.249 34.4409 19.7207 34.4409L34.2793 34.4409C34.751 34.4409 35.1865 34.3013 35.5586 34.0679L29.3516 27.1226ZM17.6719 21.02C17.4365 21.394 17.2939 21.834 17.2939 22.3091L17.2939 32.0146C17.2939 32.4404 17.4131 32.8345 17.6055 33.1816L23.7344 26.3232L17.6719 21.02Z" fill="#251D1A" fill-opacity="1.000000" fill-rule="nonzero"/>
</svg>
