<svg width="54.000000" height="54.000000" viewBox="0 0 54 54" fill="none" xmlns="http://www.w3.org/2000/svg" xmlns:xlink="http://www.w3.org/1999/xlink">
	<desc>
			Created with Pixso.
	</desc>
	<defs>
		<clipPath id="clip834_6306">
			<rect id="Разное для шапок/Иконки контактов/ 1. Карта" width="22.000000" height="22.000000" transform="matrix(-1 0 0 1 38 16)" fill="white" fill-opacity="0"/>
		</clipPath>
	</defs>
	<rect id="Rectangle" rx="27.000000" width="54.000000" height="54.000000" fill="#FF6E40" fill-opacity="1.000000"/>
	<rect id="Разное для шапок/Иконки контактов/ 1. Карта" width="22.000000" height="22.000000" transform="matrix(-1 0 0 1 38 16)" fill="#FFFFFF" fill-opacity="0"/>
	<g clip-path="url(#clip834_6306)">
		<path id="Facebook Places" d="M34.2197 21.4756C34.1416 21.1821 33.9824 20.8691 33.8643 20.5957C32.457 17.2124 29.3809 16 26.8975 16C23.5723 16 19.9111 18.2295 19.4219 22.8247L19.4219 23.7637C19.4219 23.8027 19.4355 24.1548 19.4541 24.3306C19.7285 26.5205 21.457 28.8481 22.7471 31.0381C24.1357 33.3848 25.5762 35.6929 27.0039 38C27.8838 36.4941 28.7607 34.9688 29.6211 33.5024C29.8555 33.0718 30.1279 32.6416 30.3623 32.231C30.5186 31.9575 30.8174 31.6836 30.9541 31.4292C32.3428 28.8872 34.5771 26.3257 34.5771 23.8027L34.5771 22.7661C34.5771 22.4927 34.2383 21.5347 34.2197 21.4756ZM26.958 26.1885C25.9805 26.1885 24.9111 25.6997 24.3828 24.3501C24.3047 24.1353 24.3105 23.7051 24.3105 23.6655L24.3105 23.0591C24.3105 21.3389 25.7715 20.5566 27.043 20.5566C28.6074 20.5566 29.8174 21.8081 29.8174 23.3726C29.8174 24.937 28.5225 26.1885 26.958 26.1885Z" fill="#251D1A" fill-opacity="1.000000" fill-rule="nonzero"/>
	</g>
</svg>
