<svg width="20" height="20" viewBox="0 0 20 20" fill="none" xmlns="http://www.w3.org/2000/svg">
<path d="M0 9.99977C0 9.44749 0.447715 8.99977 1 8.99977H19C19.5523 8.99977 20 9.44749 20 9.99977V9.99977C20 10.5521 19.5523 10.9998 19 10.9998H1C0.447716 10.9998 0 10.5521 0 9.99977V9.99977Z" fill="#313131"/>
<path d="M10.0001 -6.10789e-05C10.5523 -6.10547e-05 11.0001 0.447654 11.0001 0.999939L11.0001 18.9999C11.0001 19.5522 10.5523 19.9999 10.0001 19.9999V19.9999C9.44778 19.9999 9.00006 19.5522 9.00006 18.9999L9.00006 0.999939C9.00006 0.447654 9.44778 -6.1103e-05 10.0001 -6.10789e-05V-6.10789e-05Z" fill="#313131"/>
</svg>
