<svg width="70" height="20" viewBox="0 0 70 20" fill="none" xmlns="http://www.w3.org/2000/svg">
<path d="M3.475 18.8014H0V1.30026H11.2V4.5339H3.45V8.85363H10.35V11.9885H3.475V18.8014Z" fill="white"/>
<path d="M15.5643 18.8014H12.2393V6.65674H15.5643V18.8014ZM11.8393 2.68258C11.8393 2.12307 12.0393 1.64584 12.4393 1.2509C12.8393 0.839491 13.3226 0.633789 13.8893 0.633789C14.4559 0.633789 14.9393 0.831263 15.3393 1.22621C15.7393 1.62116 15.9393 2.10661 15.9393 2.68258C15.9393 3.22563 15.7393 3.69463 15.3393 4.08958C14.9393 4.48453 14.4559 4.682 13.8893 4.682C13.3226 4.682 12.8393 4.48453 12.4393 4.08958C12.0393 3.69463 11.8393 3.22563 11.8393 2.68258Z" fill="white"/>
<path d="M21.724 3.02816V6.65674H24.199V9.56947H21.724V14.6544C21.724 15.1646 21.8407 15.5266 22.074 15.7405C22.3074 15.9545 22.674 16.0614 23.174 16.0614C23.624 16.0614 23.9657 16.0285 24.199 15.9627V18.6779C23.7157 18.8754 23.0907 18.9742 22.324 18.9742C21.124 18.9742 20.174 18.645 19.474 17.9868C18.774 17.3121 18.424 16.3905 18.424 15.2222V9.56947H16.199V6.65674H16.824C17.4407 6.65674 17.9074 6.48395 18.224 6.13837C18.5574 5.77633 18.724 5.30733 18.724 4.73137V3.02816H21.724Z" fill="white"/>
<path d="M28.6775 11.8157V18.8014H25.3525V6.65674H28.5775V8.16247C28.9275 7.57005 29.4275 7.11751 30.0775 6.80484C30.7275 6.49218 31.4109 6.33584 32.1275 6.33584C33.5775 6.33584 34.6775 6.78839 35.4275 7.69347C36.1942 8.58211 36.5775 9.73404 36.5775 11.1493V18.8014H33.2525V11.717C33.2525 10.9929 33.0609 10.4087 32.6775 9.96442C32.3109 9.52011 31.7442 9.29795 30.9775 9.29795C30.2775 9.29795 29.7192 9.53656 29.3025 10.0138C28.8859 10.491 28.6775 11.0917 28.6775 11.8157Z" fill="white"/>
<path d="M40.8771 11.3467H46.3771C46.3438 10.672 46.0938 10.1043 45.6271 9.64353C45.1771 9.18276 44.5105 8.95237 43.6271 8.95237C42.8271 8.95237 42.1771 9.19921 41.6771 9.69289C41.1771 10.1866 40.9105 10.7379 40.8771 11.3467ZM46.7021 14.5063L49.4771 15.3209C49.1438 16.4399 48.4855 17.3615 47.5021 18.0855C46.5355 18.8096 45.3271 19.1716 43.8771 19.1716C42.1105 19.1716 40.6105 18.5874 39.3771 17.4191C38.1438 16.2342 37.5271 14.6544 37.5271 12.6797C37.5271 10.8037 38.1271 9.27326 39.3271 8.08842C40.5271 6.88712 41.9438 6.28647 43.5771 6.28647C45.4771 6.28647 46.9605 6.84598 48.0271 7.965C49.1105 9.08402 49.6521 10.6227 49.6521 12.5809C49.6521 12.7126 49.6438 12.8607 49.6271 13.0253C49.6271 13.1898 49.6271 13.3215 49.6271 13.4202L49.6021 13.593H40.8021C40.8355 14.3829 41.1521 15.0411 41.7521 15.5677C42.3521 16.0943 43.0688 16.3576 43.9021 16.3576C45.3188 16.3576 46.2521 15.7405 46.7021 14.5063Z" fill="white"/>
<path d="M49.7205 15.4196L52.5705 14.8025C52.6038 15.3291 52.8122 15.7734 53.1955 16.1355C53.5955 16.4811 54.1372 16.6538 54.8205 16.6538C55.3372 16.6538 55.7372 16.5387 56.0205 16.3083C56.3038 16.0779 56.4455 15.7899 56.4455 15.4443C56.4455 14.8354 56.0038 14.4405 55.1205 14.2595L53.4955 13.8892C52.3455 13.6424 51.4788 13.1981 50.8955 12.5563C50.3288 11.9145 50.0455 11.1493 50.0455 10.2606C50.0455 9.15807 50.4788 8.22007 51.3455 7.44663C52.2288 6.67319 53.3288 6.28647 54.6455 6.28647C55.4788 6.28647 56.2122 6.4099 56.8455 6.65674C57.4788 6.88712 57.9705 7.19156 58.3205 7.57005C58.6705 7.93209 58.9372 8.30235 59.1205 8.68084C59.3038 9.05933 59.4205 9.4296 59.4705 9.79163L56.6955 10.4087C56.6288 9.98088 56.4288 9.60239 56.0955 9.27326C55.7788 8.94414 55.3038 8.77958 54.6705 8.77958C54.2372 8.77958 53.8622 8.89477 53.5455 9.12516C53.2455 9.35554 53.0955 9.64353 53.0955 9.98911C53.0955 10.5815 53.4705 10.9436 54.2205 11.0752L55.9705 11.4455C57.1538 11.6923 58.0538 12.1449 58.6705 12.8031C59.3038 13.4614 59.6205 14.2512 59.6205 15.1728C59.6205 16.2589 59.2038 17.1969 58.3705 17.9868C57.5372 18.7767 56.3622 19.1716 54.8455 19.1716C53.9788 19.1716 53.2038 19.0482 52.5205 18.8014C51.8372 18.5381 51.3038 18.2089 50.9205 17.814C50.5538 17.4026 50.2705 16.9994 50.0705 16.6045C49.8872 16.1931 49.7705 15.7981 49.7205 15.4196Z" fill="white"/>
<path d="M59.7439 15.4196L62.5939 14.8025C62.6273 15.3291 62.8356 15.7734 63.2189 16.1355C63.6189 16.4811 64.1606 16.6538 64.8439 16.6538C65.3606 16.6538 65.7606 16.5387 66.0439 16.3083C66.3273 16.0779 66.4689 15.7899 66.4689 15.4443C66.4689 14.8354 66.0273 14.4405 65.1439 14.2595L63.5189 13.8892C62.3689 13.6424 61.5023 13.1981 60.9189 12.5563C60.3523 11.9145 60.0689 11.1493 60.0689 10.2606C60.0689 9.15807 60.5023 8.22007 61.3689 7.44663C62.2523 6.67319 63.3523 6.28647 64.6689 6.28647C65.5023 6.28647 66.2356 6.4099 66.8689 6.65674C67.5023 6.88712 67.9939 7.19156 68.3439 7.57005C68.6939 7.93209 68.9606 8.30235 69.1439 8.68084C69.3273 9.05933 69.4439 9.4296 69.4939 9.79163L66.7189 10.4087C66.6523 9.98088 66.4523 9.60239 66.1189 9.27326C65.8023 8.94414 65.3273 8.77958 64.6939 8.77958C64.2606 8.77958 63.8856 8.89477 63.5689 9.12516C63.2689 9.35554 63.1189 9.64353 63.1189 9.98911C63.1189 10.5815 63.4939 10.9436 64.2439 11.0752L65.9939 11.4455C67.1773 11.6923 68.0773 12.1449 68.6939 12.8031C69.3273 13.4614 69.6439 14.2512 69.6439 15.1728C69.6439 16.2589 69.2273 17.1969 68.3939 17.9868C67.5606 18.7767 66.3856 19.1716 64.8689 19.1716C64.0023 19.1716 63.2273 19.0482 62.5439 18.8014C61.8606 18.5381 61.3273 18.2089 60.9439 17.814C60.5773 17.4026 60.2939 16.9994 60.0939 16.6045C59.9106 16.1931 59.7939 15.7981 59.7439 15.4196Z" fill="white"/>
</svg>
